<svg width="90" height="98" viewBox="0 0 90 98" fill="none" xmlns="http://www.w3.org/2000/svg">
<path d="M76.912 23.344C75.8027 23.344 74.928 23.1093 74.288 22.64C73.6907 22.128 73.328 21.4453 73.2 20.592C73.1147 19.7387 73.1573 18.864 73.328 17.968C73.4987 17.0293 73.776 16.0693 74.16 15.088C74.544 14.064 75.1413 12.6133 75.952 10.736L76.4 11.248C77.552 11.5467 78.128 12.1653 78.128 13.104C78.1707 14.0427 77.9147 15.2373 77.36 16.688C76.848 18.096 76.592 19.1413 76.592 19.824C76.592 20.1227 76.6133 20.5067 76.656 20.976C76.6987 21.4027 76.7413 21.872 76.784 22.384C76.8693 22.8533 76.912 23.1733 76.912 23.344ZM85.552 24.368C84.1867 23.728 83.3333 22.6187 82.992 21.04C82.6933 19.4613 82.8 17.8827 83.312 16.304C83.8667 14.6827 84.5707 13.1893 85.424 11.824C86.32 10.416 87.1947 9.54133 88.048 9.2C88.1333 9.328 88.2613 9.49866 88.432 9.712C88.6027 9.88266 88.7307 10.0533 88.816 10.224C88.944 10.3947 89.0507 10.5867 89.136 10.8C89.2213 11.0133 89.264 11.248 89.264 11.504C89.264 11.7173 89.2 11.952 89.072 12.208C89.072 12.3787 88.9227 12.7413 88.624 13.296C88.368 13.808 88.048 14.384 87.664 15.024C87.3227 15.664 87.1093 16.0907 87.024 16.304C86.8533 16.816 86.4693 18.8853 85.872 22.512L85.552 24.368Z" fill="#30C29E"/>
<path d="M65 85.3618C49.3825 84.829 34.8619 75.3536 43.2823 57.8008C45.1446 53.9187 58.718 42.2834 60.8679 51.4182C63.9604 64.5583 46.5415 79.3479 37.4204 85.6519C30.2735 90.5915 9.37268 102.491 1 94.0653" stroke="#30C29E" stroke-width="2" stroke-linecap="round" stroke-linejoin="round"/>
</svg>
