<svg width="120" height="128" viewBox="0 0 120 128" fill="none" xmlns="http://www.w3.org/2000/svg">
<path d="M42.0542 4.03276C38.592 8.66703 19.7039 31.7889 28.3195 37.6081C31.3948 39.6853 32.7251 38.0339 34.6099 35.4345C39.4762 28.7231 33.3838 22.9175 28.0085 29.0468C24.0693 33.5385 21.9131 42.5139 20.619 48.0354C11.9453 85.042 57.3322 102.121 83.6375 114.887C90.7578 118.342 86.1161 115.615 83.0866 116.838C81.0351 117.666 78.6892 117.965 76.6363 118.794C73.8742 119.909 65.5505 124.159 70.5452 118.012C72.0002 116.221 73.8896 114.083 76.1453 113.355C77.4936 112.92 82.1056 113.617 82.7487 112.73C84.951 109.693 82.5829 97.7251 82.7008 101.475C82.7672 103.584 85.8048 112.499 86.8243 113.576" stroke="#4F4F4F" stroke-width="2" stroke-linecap="round" stroke-linejoin="round"/>
</svg>
