<svg width="17" height="18" viewBox="0 0 17 18" fill="none" xmlns="http://www.w3.org/2000/svg">
<path d="M4.48 16.44C3.424 17.144 2.56 17.32 1.888 16.968C1.216 16.584 0.88 15.672 0.88 14.232C0.88 12.376 1.968 10.088 4.144 7.368C6.32 4.616 8.256 2.76 9.952 1.8C10.848 1.32 11.456 1.048 11.776 0.983999C12.096 0.887999 12.752 0.919999 13.744 1.08C15.728 1.336 16.688 2.664 16.624 5.064C16.56 6.344 16.24 7.56 15.664 8.712C15.088 9.832 14.304 10.808 13.312 11.64C12.32 12.472 11.264 13.208 10.144 13.848C9.056 14.456 7.856 15 6.544 15.48C6.544 15.48 6.432 15.528 6.208 15.624C6.016 15.688 5.76 15.8 5.44 15.96C5.152 16.088 4.832 16.248 4.48 16.44ZM3.136 13.944C4.48 14.04 6.064 13.64 7.888 12.744C9.744 11.848 11.344 10.68 12.688 9.24C14.032 7.8 14.64 6.456 14.512 5.208C14.448 4.632 14.336 4.216 14.176 3.96C14.048 3.672 13.776 3.528 13.36 3.528C12.912 3.528 12.4 3.688 11.824 4.008C11.28 4.328 10.608 4.776 9.808 5.352C9.008 5.928 8.544 6.264 8.416 6.36C7.488 6.968 6.464 8.088 5.344 9.72C4.224 11.32 3.488 12.728 3.136 13.944Z" fill="#F58A24"/>
</svg>
