<svg width="25" height="24" viewBox="0 0 25 24" fill="none" xmlns="http://www.w3.org/2000/svg">
<path d="M6.368 22.016C4.704 22.016 3.392 21.664 2.432 20.96C1.536 20.192 0.992 19.168 0.8 17.888C0.672 16.608 0.736 15.296 0.992 13.952C1.248 12.544 1.664 11.104 2.24 9.632C2.816 8.096 3.712 5.92 4.928 3.10399L5.6 3.872C7.328 4.32 8.192 5.248 8.192 6.65599C8.256 8.064 7.872 9.856 7.04 12.032C6.272 14.144 5.888 15.712 5.888 16.736C5.888 17.184 5.92 17.76 5.984 18.464C6.048 19.104 6.112 19.808 6.176 20.576C6.304 21.28 6.368 21.76 6.368 22.016ZM19.328 23.552C17.28 22.592 16 20.928 15.488 18.56C15.04 16.192 15.2 13.824 15.968 11.456C16.8 9.024 17.856 6.784 19.136 4.736C20.48 2.624 21.792 1.312 23.072 0.799995C23.2 0.991997 23.392 1.248 23.648 1.568C23.904 1.824 24.096 2.08 24.224 2.336C24.416 2.592 24.576 2.88 24.704 3.2C24.832 3.52 24.896 3.872 24.896 4.256C24.896 4.576 24.8 4.928 24.608 5.31199C24.608 5.568 24.384 6.112 23.936 6.944C23.552 7.712 23.072 8.576 22.496 9.536C21.984 10.496 21.664 11.136 21.536 11.456C21.28 12.224 20.704 15.328 19.808 20.768L19.328 23.552Z" fill="#F58A24"/>
</svg>
